<svg xmlns="http://www.w3.org/2000/svg" viewBox="0 0 1280 320" width="1280" height="320" role="img" aria-label="import-xgest-odoo"><defs><clipPath id="c"><rect width="1280" height="320" rx="16"/></clipPath></defs><g clip-path="url(#c)"><rect width="1280" height="320" fill="#F6EFE3"/><rect x="0" y="262" width="1280" height="58" fill="#E3D5BF"/><g transform="translate(1030 262) scale(1.42) translate(-40 -262)"><path d="M-70 214 l-30 48 M-60 218 l-6 44 M-36 214 l10 48 M-30 212 l34 50 M-80 210 l-54 52 M-20 206 l58 56" stroke="#2D1E2F" stroke-width="7" stroke-linecap="round" fill="none"/><ellipse cx="-130" cy="196" rx="54" ry="38" fill="#2D1E2F"/><ellipse cx="-56" cy="196" rx="30" ry="22" fill="#2D1E2F"/><g transform="translate(40 196) rotate(16)"><path d="M0 0 L0 -118 L66 -118 L84 -100 L84 0 Z" fill="#E8833A"/><path d="M66 -118 L66 -100 L84 -100 Z" fill="#F6B27A"/><rect x="0" y="-118" width="66" height="16" fill="#C9621E"/><path d="M10 -86 H74 M10 -72 H74 M10 -58 H74 M10 -44 H74 M10 -30 H74 M10 -16 H74" stroke="#FCE3CC" stroke-width="3"/><path d="M34 -102 V-6" stroke="#FCE3CC" stroke-width="2.5"/></g><path d="M38 186 l12 4 l-6 10 z" fill="#2D1E2F"/><circle cx="12" cy="176" r="34" fill="#2D1E2F"/><circle cx="24" cy="168" r="10" fill="#fff"/><circle cx="27" cy="169" r="5" fill="#111"/><path d="M34 188 q8 6 14 0" stroke="#fff" stroke-width="3" fill="none" stroke-linecap="round"/><path d="M10 144 q-6 -26 -26 -34 M24 146 q10 -24 34 -28" stroke="#2D1E2F" stroke-width="5" fill="none" stroke-linecap="round"/></g><path fill="#3E2438" d="M67 130l0-31l10 0l0 31zm5-34q-3 0-4-1q-2-2-2-4q0-2 2-4q1-1 4-1q2 0 4 1q1 2 1 4q0 2-1 4q-2 1-4 1zM82 130l0-31l9 0l0 7l0 0q1-2 2-4q1-2 3-3q2-1 5-1q3 0 6 2q2 2 3 6l-1 0q1-2 2-4q2-2 4-3q2-1 5-1q3 0 5 2q2 1 4 4q1 2 1 5l0 21l-10 0l0-18q0-3-1-4q-2-1-4-1q-1 0-2 0q-1 1-2 2q0 1 0 3l0 18l-10 0l0-18q0-3-1-4q-2-1-4-1q-1 0-2 0q-1 1-2 2q0 1 0 3l0 18zM135 142l0-43l10 0l0 4l0 0q1-1 2-3q1-1 3-1q2-1 4-1q4 0 7 2q3 2 4 6q2 4 2 8q0 5-2 9q-1 4-4 6q-3 2-7 2q-2 0-4-1q-2-1-3-2q-1-1-2-3l0 0l0 17zm16-19q2 0 3-1q1-1 2-3q1-2 1-5q0-2-1-4q-1-2-2-3q-1-1-3-1q-2 0-4 1q-1 1-2 3q-1 2-1 4q0 3 1 5q1 2 2 3q2 1 4 1zM185 131q-5 0-8-2q-4-2-6-6q-2-4-2-8q0-5 2-9q2-4 6-6q3-2 8-2q5 0 9 2q3 2 5 6q3 4 3 9q0 4-3 8q-2 4-5 6q-4 2-9 2zm0-8q2 0 3-1q2-1 3-3q0-2 0-4q0-3 0-5q-1-2-3-3q-1-1-3-1q-1 0-3 1q-1 1-2 3q-1 2-1 5q0 2 1 4q1 2 2 3q2 1 3 1zM205 130l0-31l10 0l0 6l0 0q1-3 2-5q2-1 5-1q1 0 2 0q0 0 1 0l0 8q-1 0-2 0q-1 0-2 0q-2 0-3 1q-1 1-2 2q-1 2-1 4l0 16zM248 99l0 8l-21 0l0-8zm-16-8l10 0l0 29q0 1 0 2q1 0 3 0q1 0 2 0q1 0 1 0l0 8q-1 0-2 0q-2 0-3 0q-6 0-9-2q-2-2-2-7zM271 109l0 8l-20 0l0-8zM272 130l13-18l-1 4l-11-17l11 0l2 4q1 2 2 4q1 1 2 3l-2 0q1-2 2-3q1-2 2-4l2-4l11 0l-12 17l0-4l12 18l-11 0l-2-4q-1-2-2-4q-1-1-2-3l2 0q-1 2-2 3q-1 2-2 4l-3 4zM321 143q-5 0-8-2q-4-1-5-3q-2-3-2-6l9 0q0 1 1 2q1 1 2 1q1 1 3 1q2 0 4-2q1-2 1-5l0-4l0 0q-1 1-2 3q-1 1-3 1q-2 1-4 1q-4 0-7-2q-3-2-4-6q-2-3-2-8q0-4 2-8q1-4 4-6q3-2 7-2q2 0 4 1q2 1 3 2q1 1 2 2l0 0l0-4l10 0l0 29q0 5-2 9q-1 3-5 4q-4 2-8 2zm-1-21q2 0 4-1q1-1 2-3q1-2 1-4q0-2-1-4q-1-2-2-3q-2-1-4-1q-2 0-3 1q-1 1-2 3q-1 2-1 4q0 2 1 4q1 2 2 3q1 1 3 1zM356 131q-5 0-9-2q-3-2-5-6q-2-4-2-8q0-5 2-9q2-4 5-6q4-2 8-2q4 0 7 2q3 1 5 3q2 2 3 5q1 3 1 6l0 3l-28 0l0-6l23 0l-4 1q0-2-1-3q-1-2-2-2q-1-1-3-1q-2 0-4 1q-1 0-2 2q-1 1-1 3l0 5q0 2 1 3q1 2 2 3q2 0 4 0q1 0 3 0q1 0 2-1q0-1 1-2l9 0q-1 3-3 6q-2 2-5 3q-3 2-7 2zM388 131q-4 0-8-2q-3-1-5-3q-2-3-2-6l10 0q0 2 1 3q2 1 4 1q2 0 3-1q1-1 1-2q0-1-1-1q-1-1-3-1l-5-1q-5-1-7-4q-2-2-2-6q0-3 1-5q2-2 5-3q3-2 7-2q5 0 8 2q3 1 5 3q2 3 2 6l-10 0q0-2-1-3q-1-1-3-1q-2 0-3 1q-1 1-1 2q0 1 0 2q1 0 3 1l6 1q5 1 7 3q2 2 2 5q0 3-1 6q-2 2-5 3q-4 2-8 2zM426 99l0 8l-22 0l0-8zm-17-8l10 0l0 29q0 1 1 2q0 0 2 0q1 0 2 0q1 0 2 0l0 8q-1 0-3 0q-1 0-3 0q-6 0-8-2q-3-2-3-7zM449 109l0 8l-21 0l0-8zM469 131q-5 0-9-2q-3-2-5-6q-2-4-2-8q0-5 2-9q2-4 5-6q4-2 9-2q5 0 8 2q4 2 6 6q2 4 2 9q0 4-2 8q-2 4-6 6q-3 2-8 2zm0-8q2 0 3-1q1-1 2-3q1-2 1-4q0-3-1-5q-1-2-2-3q-1-1-3-1q-2 0-3 1q-2 1-2 3q-1 2-1 5q0 2 1 4q0 2 2 3q1 1 3 1zM501 131q-4 0-8-2q-3-2-4-6q-2-4-2-9q0-4 2-8q2-4 5-6q3-2 6-2q2 0 4 1q2 0 3 2q1 1 2 2l0 0l0-17l10 0l0 44l-10 0l0-5l0 0q0 2-2 3q-1 1-3 2q-1 1-3 1zm2-8q2 0 4-1q1-1 2-3q1-2 1-5q0-2-1-4q-1-2-2-3q-2-1-4-1q-1 0-3 1q-1 1-2 3q-1 2-1 4q0 3 1 5q1 2 2 3q2 1 3 1zM539 131q-5 0-8-2q-4-2-6-6q-2-4-2-8q0-5 2-9q2-4 6-6q3-2 8-2q5 0 9 2q3 2 5 6q2 4 2 9q0 4-2 8q-2 4-5 6q-4 2-9 2zm0-8q2 0 3-1q2-1 2-3q1-2 1-4q0-3-1-5q0-2-2-3q-1-1-3-1q-2 0-3 1q-1 1-2 3q-1 2-1 5q0 2 1 4q1 2 2 3q1 1 3 1zM574 131q-5 0-9-2q-3-2-6-6q-2-4-2-8q0-5 2-9q3-4 6-6q4-2 9-2q5 0 8 2q4 2 6 6q2 4 2 9q0 4-2 8q-2 4-6 6q-3 2-8 2zm0-8q1 0 3-1q1-1 2-3q1-2 1-4q0-3-1-5q-1-2-2-3q-2-1-3-1q-2 0-3 1q-2 1-3 3q0 2 0 5q0 2 0 4q1 2 3 3q1 1 3 1z"/><path fill="#714B67" d="M75.8 180.3q-2.6 0-4.6-1.2q-2-1.2-3.1-3.4q-1.2-2.2-1.2-5.1q0-3 1.2-5.2q1.1-2.2 3.1-3.4q2-1.2 4.6-1.2q1.6 0 3 0.5q1.4 0.4 2.5 1.3q1 0.9 1.7 2.2q0.7 1.2 1 2.8l-3.4 0q-0.2-0.9-0.6-1.6q-0.5-0.7-1.1-1.2q-0.6-0.5-1.4-0.8q-0.7-0.2-1.6-0.2q-1.8 0-3 0.8q-1.3 0.9-1.9 2.4q-0.7 1.5-0.7 3.6q0 2 0.7 3.5q0.6 1.5 1.9 2.4q1.2 0.8 3 0.8q0.9 0 1.6-0.3q0.8-0.2 1.4-0.7q0.6-0.5 1-1.2q0.5-0.7 0.7-1.6l3.4 0q-0.3 1.6-1 2.8q-0.7 1.3-1.7 2.2q-1.1 0.9-2.5 1.3q-1.4 0.5-3 0.5zM90.3 180.2q-1.3 0-2.3-0.4q-1.1-0.5-1.7-1.4q-0.6-0.9-0.6-2.2q0-1.2 0.4-1.9q0.5-0.7 1.2-1.2q0.8-0.4 1.7-0.7q1-0.2 2-0.3q1.2-0.1 2-0.2q0.7-0.2 1-0.4q0.3-0.2 0.3-0.6l0-0.1q0-0.6-0.3-1.1q-0.3-0.4-0.8-0.6q-0.6-0.3-1.3-0.3q-0.8 0-1.4 0.3q-0.6 0.2-0.9 0.6q-0.4 0.5-0.4 1.1l-3.1 0q0.1-1.4 0.8-2.4q0.7-1 2-1.5q1.3-0.6 3-0.6q1.3 0 2.4 0.3q1 0.3 1.7 0.9q0.7 0.6 1.1 1.5q0.4 0.8 0.4 1.9l0 9.1l-3.2 0l0-1.9l0 0q-0.3 0.6-0.8 1.1q-0.5 0.5-1.3 0.7q-0.8 0.3-1.9 0.3zm0.8-2.4q1.1 0 1.8-0.3q0.7-0.4 1.1-1.1q0.3-0.6 0.3-1.4l0-1.4q-0.1 0.1-0.4 0.2q-0.3 0.1-0.7 0.1q-0.4 0.1-0.9 0.2q-0.4 0.1-0.9 0.1q-0.7 0.1-1.3 0.4q-0.6 0.2-0.9 0.6q-0.4 0.4-0.4 1q0 0.5 0.3 0.9q0.3 0.3 0.8 0.5q0.5 0.2 1.2 0.2zM100.3 180l0-13.4l3.1 0l0 2.2l0.1 0q0.3-1.1 1.1-1.7q0.8-0.6 2.1-0.6q0.3 0 0.6 0q0.3 0 0.4 0l0 2.9q-0.1-0.1-0.6-0.1q-0.4 0-0.9 0q-0.7 0-1.3 0.3q-0.6 0.4-1 1.1q-0.4 0.7-0.4 1.7l0 7.6zM109.7 180l0-13.4l3.1 0l0 2.2l0 0q0.4-1.1 1.2-1.7q0.8-0.6 2.1-0.6q0.3 0 0.6 0q0.2 0 0.4 0l0 2.9q-0.1-0.1-0.6-0.1q-0.4 0-0.9 0q-0.7 0-1.3 0.3q-0.7 0.4-1 1.1q-0.4 0.7-0.4 1.7l0 7.6zM119.1 180l0-13.4l3.2 0l0 13.4zm1.6-15.4q-0.9 0-1.4-0.5q-0.6-0.6-0.6-1.3q0-0.8 0.6-1.3q0.5-0.5 1.4-0.5q0.8 0 1.3 0.5q0.6 0.5 0.6 1.3q0 0.8-0.6 1.3q-0.5 0.5-1.3 0.5zM131 180.3q-2 0-3.5-0.9q-1.4-0.9-2.2-2.5q-0.8-1.6-0.8-3.6q0-2 0.8-3.6q0.8-1.6 2.3-2.5q1.4-0.9 3.3-0.9q1.4 0 2.6 0.5q1.2 0.5 2.1 1.4q0.8 1 1.3 2.2q0.4 1.3 0.4 2.9l0 0.8l-11.5 0l0-2.2l9.9 0l-1.4 0.6q0-1.1-0.4-1.9q-0.4-0.9-1.2-1.3q-0.7-0.5-1.8-0.5q-1 0-1.7 0.5q-0.8 0.4-1.2 1.3q-0.4 0.8-0.4 1.9l0 1.4q0 1.2 0.4 2q0.4 0.9 1.2 1.4q0.8 0.5 1.9 0.5q0.8 0 1.4-0.3q0.6-0.2 1.1-0.6q0.4-0.5 0.6-1l3 0q-0.3 1.3-1.2 2.3q-0.8 1-2.1 1.5q-1.3 0.6-2.9 0.6zM144.7 180.3q-1.6 0-2.9-0.5q-1.3-0.5-2.1-1.5q-0.7-1-0.8-2.4l3.1 0q0.1 0.9 0.8 1.5q0.7 0.5 1.9 0.5q1.2 0 1.8-0.4q0.7-0.5 0.7-1.2q0-0.6-0.5-1q-0.5-0.4-1.3-0.5l-2.3-0.5q-2-0.4-2.9-1.4q-1-1-1-2.5q0-1.2 0.6-2.1q0.7-1 1.9-1.5q1.2-0.5 2.9-0.5q1.6 0 2.8 0.5q1.3 0.6 2 1.6q0.7 1 0.7 2.4l-3 0q0-0.9-0.7-1.5q-0.7-0.6-1.8-0.6q-1 0-1.6 0.5q-0.6 0.4-0.6 1.1q0 0.6 0.4 1q0.5 0.4 1.3 0.6l2.5 0.5q1.9 0.4 2.9 1.3q0.9 0.9 0.9 2.4q0 1.3-0.7 2.2q-0.7 1-2 1.5q-1.3 0.5-3 0.5zM164.4 180.3q-2 0-3.5-0.9q-1.4-0.9-2.2-2.5q-0.8-1.6-0.8-3.6q0-2 0.8-3.6q0.8-1.6 2.3-2.5q1.4-0.9 3.3-0.9q1.4 0 2.6 0.5q1.2 0.5 2 1.4q0.9 1 1.4 2.2q0.4 1.3 0.4 2.9l0 0.8l-11.6 0l0-2.2l10 0l-1.4 0.6q0-1.1-0.4-1.9q-0.4-0.9-1.2-1.3q-0.7-0.5-1.8-0.5q-1 0-1.7 0.5q-0.8 0.4-1.2 1.3q-0.4 0.8-0.4 1.9l0 1.4q0 1.2 0.4 2q0.4 0.9 1.2 1.4q0.8 0.5 1.9 0.5q0.8 0 1.4-0.3q0.6-0.2 1.1-0.6q0.4-0.5 0.5-1l3 0q-0.2 1.3-1.1 2.3q-0.8 1-2.1 1.5q-1.3 0.6-2.9 0.6zM176.2 180l-5-13.4l3.4 0l2.4 7q0.4 1.1 0.8 2.2q0.3 1.1 0.6 2.2l-0.7 0q0.3-1.1 0.6-2.2q0.4-1.1 0.7-2.2l2.4-7l3.4 0l-5 13.4zM191.9 180.3q-2 0-3.5-0.9q-1.5-0.9-2.3-2.5q-0.8-1.6-0.8-3.6q0-2 0.9-3.6q0.8-1.6 2.2-2.5q1.5-0.9 3.3-0.9q1.5 0 2.7 0.5q1.2 0.5 2 1.4q0.9 1 1.3 2.2q0.5 1.3 0.5 2.9l0 0.8l-11.6 0l0-2.2l10 0l-1.5 0.6q0-1.1-0.4-1.9q-0.4-0.9-1.1-1.3q-0.8-0.5-1.8-0.5q-1 0-1.8 0.5q-0.7 0.4-1.1 1.3q-0.4 0.8-0.4 1.9l0 1.4q0 1.2 0.4 2q0.4 0.9 1.2 1.4q0.7 0.5 1.9 0.5q0.8 0 1.4-0.3q0.6-0.2 1-0.6q0.4-0.5 0.6-1l3 0q-0.2 1.3-1.1 2.3q-0.9 1-2.2 1.5q-1.3 0.6-2.8 0.6zM200.3 180l0-13.4l3.1 0l0 2.2l0.1 0q0.3-1.1 1.1-1.7q0.8-0.6 2.1-0.6q0.3 0 0.6 0q0.3 0 0.5 0l0 2.9q-0.2-0.1-0.6-0.1q-0.5 0-1 0q-0.7 0-1.3 0.3q-0.6 0.4-1 1.1q-0.4 0.7-0.4 1.7l0 7.6zM210.2 185.3l0-2.6l1.5 0q0.5 0 0.8-0.1q0.3-0.2 0.5-0.5q0.2-0.4 0.4-0.9l0.5-1.3l-5.2-13.3l3.4 0l2.5 7q0.4 1.1 0.7 2.2q0.4 1.1 0.7 2.2l-0.9 0q0.3-1.1 0.7-2.2q0.3-1.1 0.7-2.2l2.5-7l3.3 0l-6 15.6q-0.4 1-1 1.7q-0.5 0.7-1.3 1.1q-0.8 0.3-1.8 0.3q-0.5 0-1 0q-0.5 0-1 0zM229.8 180l0-13.4l3.1 0l0 2.2l0.1 0q0.3-1.1 1.1-1.7q0.8-0.6 2.1-0.6q0.3 0 0.6 0q0.3 0 0.4 0l0 2.9q-0.1-0.1-0.5-0.1q-0.5 0-1 0q-0.7 0-1.3 0.3q-0.6 0.4-1 1.1q-0.4 0.7-0.4 1.7l0 7.6zM244.8 180.3q-2 0-3.4-0.9q-1.5-0.9-2.3-2.5q-0.8-1.6-0.8-3.6q0-2 0.8-3.6q0.8-1.6 2.3-2.5q1.4-0.9 3.3-0.9q1.5 0 2.6 0.5q1.2 0.5 2.1 1.4q0.8 1 1.3 2.2q0.4 1.3 0.4 2.9l0 0.8l-11.5 0l0-2.2l9.9 0l-1.4 0.6q0-1.1-0.4-1.9q-0.4-0.9-1.2-1.3q-0.7-0.5-1.7-0.5q-1.1 0-1.8 0.5q-0.8 0.4-1.2 1.3q-0.4 0.8-0.4 1.9l0 1.4q0 1.2 0.4 2q0.4 0.9 1.2 1.4q0.8 0.5 1.9 0.5q0.8 0 1.4-0.3q0.7-0.2 1.1-0.6q0.4-0.5 0.6-1l3 0q-0.3 1.3-1.1 2.3q-0.9 1-2.2 1.5q-1.3 0.6-2.9 0.6zM259.2 180.3q-1.9 0-3.4-0.9q-1.5-0.9-2.3-2.4q-0.8-1.6-0.8-3.7q0-2.1 0.8-3.6q0.8-1.6 2.3-2.5q1.5-0.9 3.4-0.9q1.3 0 2.4 0.4q1 0.3 1.8 1q0.8 0.7 1.3 1.6q0.5 1 0.6 2.1l-3.1 0q-0.1-0.6-0.3-1q-0.3-0.4-0.6-0.8q-0.4-0.3-0.9-0.5q-0.5-0.1-1.1-0.1q-1.1 0-1.8 0.5q-0.8 0.5-1.2 1.5q-0.4 1-0.4 2.3q0 1.3 0.4 2.3q0.4 1 1.2 1.5q0.7 0.5 1.8 0.5q0.6 0 1.1-0.1q0.5-0.2 0.8-0.5q0.4-0.4 0.6-0.8q0.2-0.5 0.4-1l3.1 0q-0.1 1.1-0.5 2q-0.5 1-1.3 1.7q-0.8 0.6-1.9 1q-1.1 0.4-2.4 0.4zM273.5 180.3q-2 0-3.5-0.9q-1.5-0.9-2.3-2.4q-0.9-1.6-0.9-3.7q0-2.1 0.9-3.7q0.8-1.5 2.3-2.4q1.5-0.9 3.5-0.9q1.9 0 3.4 0.9q1.5 0.9 2.3 2.4q0.9 1.6 0.9 3.7q0 2.1-0.9 3.7q-0.8 1.5-2.3 2.4q-1.5 0.9-3.4 0.9zm0-2.7q1 0 1.7-0.5q0.8-0.5 1.2-1.5q0.4-1 0.4-2.3q0-1.3-0.4-2.3q-0.4-1-1.2-1.5q-0.7-0.5-1.7-0.5q-1.1 0-1.8 0.5q-0.8 0.5-1.2 1.5q-0.4 1-0.4 2.3q0 1.4 0.4 2.3q0.4 1 1.2 1.5q0.7 0.5 1.8 0.5zM282.3 180l0-13.4l3.1 0l0 2.2l0 0q0.4-1.1 1.2-1.7q0.8-0.6 2.1-0.6q0.3 0 0.5 0q0.3 0 0.5 0l0 2.9q-0.2-0.1-0.6-0.1q-0.4 0-0.9 0q-0.8 0-1.4 0.3q-0.6 0.4-1 1.1q-0.3 0.7-0.3 1.7l0 7.6zM296.5 180.3q-1.7 0-3-0.9q-1.3-0.9-2-2.5q-0.8-1.5-0.8-3.6q0-2.1 0.8-3.6q0.7-1.6 2-2.5q1.3-0.9 3-0.9q0.9 0 1.7 0.3q0.7 0.2 1.3 0.7q0.6 0.5 1.1 1.2l0 0l0-7.4l3.2 0l0 18.9l-3.2 0l0-2l0 0q-0.4 0.7-1 1.2q-0.6 0.6-1.4 0.8q-0.8 0.3-1.7 0.3zm0.8-2.7q1 0 1.8-0.5q0.8-0.6 1.2-1.5q0.5-1 0.5-2.3q0-1.3-0.5-2.3q-0.4-1-1.2-1.5q-0.8-0.5-1.8-0.5q-1 0-1.7 0.5q-0.8 0.5-1.2 1.4q-0.4 1-0.4 2.4q0 1.4 0.4 2.3q0.4 1 1.2 1.5q0.7 0.5 1.7 0.5zM316.6 180.2q-1.3 0-2.4-0.4q-1-0.5-1.6-1.4q-0.6-0.9-0.6-2.2q0-1.2 0.4-1.9q0.4-0.7 1.2-1.2q0.7-0.4 1.6-0.7q1-0.2 2-0.3q1.3-0.1 2-0.2q0.7-0.2 1-0.4q0.4-0.2 0.4-0.6l0-0.1q0-0.6-0.3-1.1q-0.3-0.4-0.9-0.6q-0.5-0.3-1.3-0.3q-0.8 0-1.3 0.3q-0.6 0.2-1 0.6q-0.3 0.5-0.4 1.1l-3.1 0q0.1-1.4 0.8-2.4q0.8-1 2-1.5q1.3-0.6 3.1-0.6q1.3 0 2.3 0.3q1.1 0.3 1.8 0.9q0.7 0.6 1.1 1.5q0.3 0.8 0.3 1.9l0 9.1l-3.1 0l0-1.9l-0.1 0q-0.3 0.6-0.8 1.1q-0.5 0.5-1.3 0.7q-0.7 0.3-1.8 0.3zm0.8-2.4q1 0 1.7-0.3q0.8-0.4 1.1-1.1q0.4-0.6 0.4-1.4l0-1.4q-0.2 0.1-0.5 0.2q-0.3 0.1-0.7 0.1q-0.4 0.1-0.8 0.2q-0.5 0.1-1 0.1q-0.7 0.1-1.2 0.4q-0.6 0.2-1 0.6q-0.3 0.4-0.3 1q0 0.5 0.3 0.9q0.3 0.3 0.8 0.5q0.5 0.2 1.2 0.2zM332.5 180.3q-2 0-3.4-0.9q-1.5-0.9-2.3-2.4q-0.9-1.6-0.9-3.7q0-2.1 0.9-3.6q0.8-1.6 2.3-2.5q1.4-0.9 3.4-0.9q1.3 0 2.3 0.4q1.1 0.3 1.9 1q0.8 0.7 1.3 1.6q0.5 1 0.6 2.1l-3.2 0q0-0.6-0.3-1q-0.2-0.4-0.6-0.8q-0.3-0.3-0.8-0.5q-0.5-0.1-1.2-0.1q-1 0-1.8 0.5q-0.7 0.5-1.1 1.5q-0.4 1-0.4 2.3q0 1.3 0.4 2.3q0.4 1 1.1 1.5q0.8 0.5 1.8 0.5q0.7 0 1.1-0.1q0.5-0.2 0.9-0.5q0.3-0.4 0.6-0.8q0.2-0.5 0.3-1l3.2 0q-0.1 1.1-0.6 2q-0.5 1-1.3 1.7q-0.8 0.6-1.9 1q-1 0.4-2.3 0.4zM340.7 180l0-13.4l3.1 0l0 2.2l0 0q0.4-1.1 1.2-1.7q0.8-0.6 2.1-0.6q0.3 0 0.6 0q0.3 0 0.4 0l0 2.9q-0.1-0.1-0.6-0.1q-0.4 0-0.9 0q-0.7 0-1.3 0.3q-0.7 0.4-1 1.1q-0.4 0.7-0.4 1.7l0 7.6zM355.8 180.3q-2 0-3.5-0.9q-1.4-0.9-2.3-2.4q-0.8-1.6-0.8-3.7q0-2.1 0.8-3.7q0.9-1.5 2.3-2.4q1.5-0.9 3.5-0.9q2 0 3.5 0.9q1.5 0.9 2.3 2.4q0.8 1.6 0.8 3.7q0 2.1-0.8 3.7q-0.8 1.5-2.3 2.4q-1.5 0.9-3.5 0.9zm0-2.7q1 0 1.8-0.5q0.7-0.5 1.2-1.5q0.4-1 0.4-2.3q0-1.3-0.4-2.3q-0.5-1-1.2-1.5q-0.8-0.5-1.8-0.5q-1 0-1.8 0.5q-0.7 0.5-1.2 1.5q-0.4 1-0.4 2.3q0 1.4 0.4 2.3q0.5 1 1.2 1.5q0.8 0.5 1.8 0.5zM369.9 180.3q-1.6 0-2.9-0.5q-1.3-0.5-2.1-1.5q-0.8-1-0.9-2.4l3.2 0q0.1 0.9 0.8 1.5q0.6 0.5 1.8 0.5q1.2 0 1.9-0.4q0.6-0.5 0.6-1.2q0-0.6-0.5-1q-0.5-0.4-1.3-0.5l-2.3-0.5q-1.9-0.4-2.9-1.4q-1-1-1-2.5q0-1.2 0.7-2.1q0.6-1 1.8-1.5q1.3-0.5 2.9-0.5q1.6 0 2.9 0.5q1.2 0.6 1.9 1.6q0.7 1 0.7 2.4l-3 0q0-0.9-0.7-1.5q-0.6-0.6-1.7-0.6q-1.1 0-1.7 0.5q-0.6 0.4-0.6 1.1q0 0.6 0.5 1q0.4 0.4 1.3 0.6l2.4 0.5q2 0.4 2.9 1.3q1 0.9 1 2.4q0 1.3-0.8 2.2q-0.7 1-2 1.5q-1.2 0.5-2.9 0.5zM383 180.3q-1.6 0-2.9-0.5q-1.3-0.5-2.1-1.5q-0.8-1-0.9-2.4l3.2 0q0.1 0.9 0.8 1.5q0.7 0.5 1.9 0.5q1.1 0 1.8-0.4q0.7-0.5 0.7-1.2q0-0.6-0.5-1q-0.5-0.4-1.4-0.5l-2.3-0.5q-1.9-0.4-2.9-1.4q-1-1-1-2.5q0-1.2 0.7-2.1q0.7-1 1.9-1.5q1.2-0.5 2.8-0.5q1.6 0 2.9 0.5q1.2 0.6 1.9 1.6q0.7 1 0.8 2.4l-3 0q0-0.9-0.7-1.5q-0.7-0.6-1.8-0.6q-1.1 0-1.7 0.5q-0.6 0.4-0.6 1.1q0 0.6 0.5 1q0.5 0.4 1.3 0.6l2.4 0.5q2 0.4 3 1.3q0.9 0.9 0.9 2.4q0 1.3-0.7 2.2q-0.8 1-2 1.5q-1.3 0.5-3 0.5zM390.1 183.8l1-6.7l3.2 0l-1.9 6.7zM408.4 180.3q-2 0-3.5-0.9q-1.5-0.9-2.3-2.4q-0.8-1.6-0.8-3.7q0-2.1 0.8-3.7q0.8-1.5 2.3-2.4q1.5-0.9 3.5-0.9q1.9 0 3.4 0.9q1.5 0.9 2.3 2.4q0.9 1.6 0.9 3.7q0 2.1-0.9 3.7q-0.8 1.5-2.3 2.4q-1.5 0.9-3.4 0.9zm0-2.7q1 0 1.8-0.5q0.7-0.5 1.1-1.5q0.4-1 0.4-2.3q0-1.3-0.4-2.3q-0.4-1-1.1-1.5q-0.8-0.5-1.8-0.5q-1.1 0-1.8 0.5q-0.8 0.5-1.2 1.5q-0.4 1-0.4 2.3q0 1.4 0.4 2.3q0.4 1 1.2 1.5q0.7 0.5 1.8 0.5zM420.4 172.4l0 7.6l-3.2 0l0-13.4l3.1 0l0 3.4l-0.6 0q0.7-1.8 1.8-2.7q1.2-1 3-1q1.4 0 2.4 0.6q1.1 0.6 1.7 1.8q0.6 1.2 0.6 2.9l0 8.4l-3.2 0l0-7.9q0-1.4-0.7-2.2q-0.7-0.8-2-0.8q-0.8 0-1.5 0.4q-0.6 0.3-1 1q-0.4 0.8-0.4 1.9zM438 180.3q-2 0-3.5-0.9q-1.5-0.9-2.2-2.5q-0.8-1.6-0.8-3.6q0-2 0.8-3.6q0.8-1.6 2.2-2.5q1.5-0.9 3.4-0.9q1.4 0 2.6 0.5q1.2 0.5 2 1.4q0.9 1 1.3 2.2q0.5 1.3 0.5 2.9l0 0.8l-11.6 0l0-2.2l10 0l-1.4 0.6q0-1.1-0.5-1.9q-0.4-0.9-1.1-1.3q-0.7-0.5-1.8-0.5q-1 0-1.7 0.5q-0.8 0.4-1.2 1.3q-0.4 0.8-0.4 1.9l0 1.4q0 1.2 0.4 2q0.4 0.9 1.2 1.4q0.8 0.5 1.9 0.5q0.8 0 1.4-0.3q0.6-0.2 1-0.6q0.5-0.5 0.6-1l3 0q-0.2 1.3-1.1 2.3q-0.8 1-2.1 1.5q-1.3 0.6-2.9 0.6zM459.6 180.3q-0.9 0-1.7-0.3q-0.7-0.2-1.3-0.8q-0.7-0.5-1.1-1.2l0 0l0 2l-3.2 0l0-18.9l3.2 0l0 7.4l0.1 0q0.4-0.7 1-1.2q0.6-0.5 1.4-0.7q0.7-0.3 1.6-0.3q1.7 0 3 0.9q1.3 0.9 2.1 2.5q0.7 1.5 0.7 3.6q0 2.1-0.7 3.6q-0.8 1.6-2.1 2.5q-1.3 0.9-3 0.9zm-0.8-2.7q1 0 1.8-0.5q0.7-0.5 1.1-1.5q0.4-0.9 0.4-2.3q0-1.4-0.4-2.4q-0.4-0.9-1.1-1.4q-0.8-0.5-1.8-0.5q-1 0-1.8 0.5q-0.8 0.5-1.2 1.5q-0.4 1-0.4 2.3q0 1.3 0.4 2.3q0.4 0.9 1.2 1.5q0.8 0.5 1.8 0.5zM467.4 185.3l0-2.6l1.5 0q0.5 0 0.8-0.1q0.3-0.2 0.5-0.5q0.2-0.4 0.4-0.9l0.5-1.3l-5.2-13.3l3.4 0l2.5 7q0.4 1.1 0.7 2.2q0.4 1.1 0.7 2.2l-0.9 0q0.3-1.1 0.7-2.2q0.3-1.1 0.7-2.2l2.5-7l3.3 0l-6 15.6q-0.4 1-1 1.7q-0.5 0.7-1.3 1.1q-0.8 0.3-1.7 0.3q-0.6 0-1.1 0q-0.5 0-1 0zM493 180.3q-1.9 0-3.4-0.9q-1.5-0.9-2.4-2.4q-0.8-1.6-0.8-3.7q0-2.1 0.8-3.7q0.9-1.5 2.4-2.4q1.5-0.9 3.4-0.9q2 0 3.5 0.9q1.5 0.9 2.3 2.4q0.8 1.6 0.8 3.7q0 2.1-0.8 3.7q-0.8 1.5-2.3 2.4q-1.5 0.9-3.5 0.9zm0-2.7q1.1 0 1.8-0.5q0.8-0.5 1.2-1.5q0.4-1 0.4-2.3q0-1.3-0.4-2.3q-0.4-1-1.2-1.5q-0.7-0.5-1.8-0.5q-1 0-1.8 0.5q-0.7 0.5-1.1 1.5q-0.4 1-0.4 2.3q0 1.4 0.4 2.3q0.4 1 1.1 1.5q0.8 0.5 1.8 0.5zM505.1 172.4l0 7.6l-3.2 0l0-13.4l3.1 0l0 3.4l-0.6 0q0.6-1.8 1.8-2.7q1.2-1 2.9-1q1.4 0 2.5 0.6q1.1 0.6 1.7 1.8q0.6 1.2 0.6 2.9l0 8.4l-3.2 0l0-7.9q0-1.4-0.7-2.2q-0.7-0.8-2-0.8q-0.9 0-1.5 0.4q-0.7 0.3-1.1 1q-0.3 0.8-0.3 1.9zM522.7 180.3q-2 0-3.5-0.9q-1.5-0.9-2.3-2.5q-0.8-1.6-0.8-3.6q0-2 0.8-3.6q0.9-1.6 2.3-2.5q1.5-0.9 3.3-0.9q1.5 0 2.7 0.5q1.1 0.5 2 1.4q0.8 1 1.3 2.2q0.5 1.3 0.5 2.9l0 0.8l-11.6 0l0-2.2l10 0l-1.5 0.6q0-1.1-0.4-1.9q-0.4-0.9-1.1-1.3q-0.8-0.5-1.8-0.5q-1 0-1.8 0.5q-0.7 0.4-1.1 1.3q-0.4 0.8-0.4 1.9l0 1.4q0 1.2 0.4 2q0.4 0.9 1.2 1.4q0.7 0.5 1.8 0.5q0.8 0 1.5-0.3q0.6-0.2 1-0.6q0.4-0.5 0.6-1l3 0q-0.3 1.3-1.1 2.3q-0.9 1-2.2 1.5q-1.3 0.6-2.8 0.6zM532.8 180.2q-0.8 0-1.4-0.5q-0.6-0.6-0.6-1.4q0-0.9 0.6-1.4q0.6-0.6 1.4-0.6q0.8 0 1.4 0.6q0.5 0.5 0.5 1.4q0 0.8-0.5 1.4q-0.6 0.5-1.4 0.5z"/></g></svg>